<?xml version="1.0" ?><svg id="Layer_1" style="enable-background:new 0 0 512 512;" version="1.1" viewBox="0 0 512 512" xml:space="preserve" xmlns="http://www.w3.org/2000/svg" xmlns:xlink="http://www.w3.org/1999/xlink"><g><path d="M316.855,382.207c-5.782-17.447-2.849-28.33-2.686-28.886c1.032-3.39-0.875-6.969-4.25-7.999   c-3.359-1.015-6.969,0.875-7.999,4.25c-0.261,0.862-5.234,18.019,5.433,43.664c0.02,0.055,0.046,0.109,0.067,0.164   c2.088,4.996,4.76,10.307,8.186,15.887c5.359,8.749,13.14,16.327,23.107,22.545c5.187,3.218,8.843,8.28,10.265,14.234   c1.516,6.406,0.234,13.171-3.515,18.561c-3.812,5.468-9.593,8.937-16.281,9.734c-10.499,1.359-20.608-4.969-24.249-14.765   c-1.906-5.093-2-10.468-0.281-15.545c1.953-5.749,2.672-11.233,2.109-16.296c-4.515-41.122-50.738-63.167-52.699-64.089   c-3.196-1.485-7-0.109-8.499,3.078c-1.5,3.203-0.125,7.015,3.07,8.515c0.258,0.115,15.792,7.558,28.673,21.08   c-28.632,5.711-58.415,2.493-85.129-9.159c5.497-6.06,10.843-9.401,10.952-9.468c3.015-1.844,3.976-5.765,2.14-8.781   c-1.821-3-5.718-4-8.765-2.172c-1.211,0.734-29.545,18.202-29.052,49.544c0.016,0.579,0.039,1.172-0.008,1.75   c-0.75,8.843-8.249,15.686-17.139,15.686c-0.093,0-0.188,0-0.281-0.016c-7.663-0.125-15.592-7.155-16.632-14.749   c-1.054-7.656,2.953-14.905,10.358-18.217c0.781-0.344,1.547-0.687,2.328-1.109c23.498-12.718,28.826-39.247,29.045-40.372   c0.664-3.468-1.602-6.797-5.07-7.468c-3.406-0.813-6.812,1.578-7.499,5.046c-0.021,0.097-0.928,4.463-3.534,10.13   c-24.308-19.761-41.552-47.108-48.869-77.765c-3.717-15.595-4.805-31.419-3.257-47.149c14.034,6.426,23.002,16.489,23.147,16.652   c1.273,1.445,3.039,2.179,4.82,2.179c1.492,0,3-0.515,4.211-1.578c2.656-2.328,2.929-6.351,0.617-9.015   c-0.801-0.916-14.361-16.184-35.485-22.998c-0.489-0.222-1.013-0.387-1.567-0.481c-8.99-2.672-19.274-3.776-30.49-1.62   c-0.734,0.133-1.476,0.281-2.203,0.352c-12.437,1.117-23.662-7.694-25.624-20.069c-1.671-10.507,6.039-23.045,16.179-26.303   c10.218-3.289,21.093,0.461,27.443,9.858c0.57,0.844,1.149,1.695,1.789,2.508c20.757,26.201,54.645,27.029,56.074,27.052   c4.211-0.039,6.429-2.758,6.492-6.281c0.062-3.532-2.75-6.445-6.273-6.516c-0.202-0.005-13.728-0.401-27.681-7.388   c12.975-29.51,35.22-53.556,63.49-68.637c5.786,17.455,2.85,28.342,2.687,28.911c-1.032,3.382,0.875,6.953,4.257,7.992   c0.625,0.188,1.25,0.274,1.867,0.274c2.742,0,5.281-1.773,6.125-4.531c0.305-1.015,7.382-25.389-13.679-59.722   c-5.391-8.764-13.163-16.343-23.107-22.53c-5.21-3.234-8.859-8.296-10.273-14.249c-1.523-6.39-0.25-13.147,3.508-18.538   c3.804-5.477,9.593-8.945,16.296-9.757c10.359-1.242,20.6,4.96,24.24,14.772c1.898,5.109,1.992,10.484,0.274,15.554   c-1.976,5.835-2.664,11.164-2.102,16.281c4.5,41.145,50.738,63.183,52.699,64.097c3.187,1.508,7.007,0.117,8.499-3.086   c1.5-3.196,0.125-7.007-3.078-8.507c-0.253-0.119-15.779-7.555-28.657-21.072c25.89-5.184,52.218-3.155,76.607,5.714   c0.228,0.096,0.458,0.179,0.692,0.247c8.825,3.261,17.391,7.417,25.586,12.454c28.596,17.578,49.681,44.021,60.403,75.385   c0.08,0.313,0.178,0.616,0.3,0.905c1.358,4.058,2.552,8.194,3.557,12.407C403.605,285.997,373.603,351.884,316.855,382.207z" style="fill:#02A437;"/><path d="M311.778,77.693c-0.891-3.859-0.234-7.835,1.844-11.202c2.234-3.617,5.921-6.109,10.108-6.851   c4.234-0.734,8.468,0.336,11.905,3.039c5.312,4.187,7.124,11.686,4.281,17.819c-1.485,3.211-3.906,5.718-6.984,7.226   c-4.171,2.031-7.546,4.624-10.046,7.71c-4.251,5.277-7.267,11.518-9.011,18.62c-1.643-0.751-3.3-1.462-4.962-2.154   c1.195-3.198,2.241-6.537,3.084-10.029C313.825,94.395,313.746,86.255,311.778,77.693z" style="fill:#02A437;"/><path d="M82.232,339.103l-0.968,1.359c-5.742,6.89-15.952,8.125-23.256,2.827   c-6.202-4.515-8.664-14.827-5.163-21.639c3.523-6.859,10.983-10.468,19.115-8.937c0.805,0.172,1.602,0.312,2.383,0.406   c10.983,1.295,20.749-1.216,28.276-4.437c1.342,3.734,2.831,7.405,4.446,11.013C96.661,323.742,88.198,330.311,82.232,339.103z" style="fill:#02A437;"/><path d="M419.582,318.339c0.656-0.062,1.297-0.093,1.953-0.125c10.203,0,18.733,7.984,19.451,18.233   c0.625,8.718-6.578,18.436-15.108,20.373c-8.578,1.906-17.218-1.875-21.733-9.999c-0.438-0.796-0.891-1.609-1.406-2.374   c-4.038-6.138-9.295-11.422-15.636-15.804c2.373-4.513,4.53-9.139,6.456-13.862C401.974,318.053,410.618,319.248,419.582,318.339z" style="fill:#02A437;"/><path d="M467.797,209.972c-0.922,8.406-7.687,15.288-16.077,16.35c-4.406,0.578-8.64-0.36-12.296-2.648   c-4.593-2.843-9-4.484-13.468-5.024c-8.092-0.996-16.313-0.02-24.598,2.857c-0.128-0.564-0.25-1.129-0.385-1.692   c-0.538-2.258-1.131-4.495-1.764-6.714c4.393-0.817,8.86-1.978,13.357-3.472c8.437-2.805,16.343-7.859,23.514-15.006   c3.499-3.499,8.14-5.437,13.093-5.46c0.031,0,0.062,0,0.093,0c5.265,0,10.311,2.25,13.843,6.171   C466.719,199.34,468.391,204.535,467.797,209.972z" style="fill:#02A437;"/><g><g><path d="M472.625,186.762c-5.953-6.617-14.468-10.397-23.358-10.397c-0.062,0-0.109,0-0.157,0     c-8.343,0.039-16.186,3.304-22.076,9.202c-5.749,5.734-11.968,9.741-18.498,11.921c-4.535,1.502-9.018,2.612-13.377,3.32     c-12.107-32.195-34.409-59.319-64.18-77.626c-1.749-1.076-3.519-2.104-5.298-3.106c1.15-6.54,3.55-12.114,7.173-16.596     c1.297-1.617,3.203-3.046,5.687-4.257c5.78-2.827,10.265-7.445,12.999-13.35c5.296-11.46,1.921-25.443-7.999-33.247     c-6.218-4.922-14.249-6.936-22.045-5.585c-7.765,1.375-14.608,6.007-18.748,12.718c-3.875,6.257-5.093,13.647-3.437,20.811     c1.516,6.593,1.594,12.741,0.25,18.28c-0.732,3.023-1.634,5.893-2.657,8.627c-26.834-8.641-55.601-9.813-83.719-3.119     c-0.206,0.049-0.405,0.107-0.611,0.157c-4.055-6.378-7.046-13.622-7.928-21.663c-0.351-3.227,0.141-6.757,1.508-10.788     c2.672-7.875,2.531-16.217-0.398-24.108c-5.679-15.304-21.577-24.983-37.786-23.022c-10.218,1.242-19.42,6.757-25.255,15.147     s-7.82,18.889-5.453,28.818c2.203,9.25,7.875,17.116,15.967,22.154c8.242,5.125,14.624,11.304,18.96,18.35     c1.805,2.944,3.362,5.784,4.724,8.521c-30.73,16.074-55.038,41.805-69.451,73.476c-2.724-2.234-5.326-4.803-7.689-7.784     c-0.429-0.546-0.805-1.125-1.594-2.289c-9.195-13.593-25.936-19.318-41.583-14.327c-16.171,5.187-27.576,23.732-24.912,40.497     c3,18.998,20.24,32.458,39.419,30.81c1.141-0.109,2.289-0.312,3.921-0.617c6.9-1.328,13.439-1.031,19.444,0.228     c-2.121,18.102-1.045,36.331,3.234,54.267c0.336,1.407,0.699,2.807,1.073,4.2c-6.038,2.764-14.025,5.04-22.946,4.018     c-0.008,0-2.016-0.36-2.023-0.36c-13.147-2.531-26.17,3.781-32.341,15.764c-6.343,12.343-2.211,29.669,9.023,37.825     c5.289,3.859,11.468,5.718,17.608,5.718c8.609,0,17.139-3.671,23.022-10.718c0.61-0.75,1.149-1.516,1.883-2.593     c4.614-6.802,11.266-11.773,19.804-14.824c9.894,17.961,23.283,33.9,39.479,46.776c-3.144,3.911-7.171,7.631-12.295,10.405     l-1.859,0.844c-12.249,5.484-19.249,18.14-17.421,31.482c1.898,13.749,15.218,25.56,29.107,25.81c0.164,0,0.32,0,0.484,0     c15.507,0,28.599-11.952,29.896-27.436c0.086-0.999,0.078-2.031,0.055-3.203c-0.108-6.838,1.74-12.893,4.421-18.059     c20.382,9.295,42.475,14.059,64.691,14.059c12.108,0,24.264-1.422,36.185-4.266c0.191-0.046,0.378-0.099,0.57-0.145     c4.056,6.378,7.048,13.621,7.93,21.66c0.343,3.187-0.157,6.812-1.516,10.796c-2.672,7.906-2.531,16.248,0.406,24.108     c5.187,13.983,18.905,23.279,33.607,23.279c1.39,0,2.781-0.093,4.171-0.25c10.218-1.234,19.42-6.75,25.248-15.14     c5.844-8.39,7.827-18.905,5.453-28.842c-2.203-9.265-7.875-17.124-15.936-22.139c-8.265-5.141-14.639-11.328-18.967-18.358     c-1.808-2.946-3.368-5.787-4.729-8.526c24.576-12.872,44.615-31.837,58.889-54.321c4.61,3.327,8.427,7.258,11.382,11.742l1.156,2     c5.765,10.375,16.811,16.608,28.373,16.608c2.374,0,4.765-0.265,7.14-0.813c14.624-3.313,26.108-18.764,25.045-33.747     c-1.203-16.92-15.342-30.138-32.216-30.138c-1.125-0.062-2.172,0.093-3.625,0.25c-6.752,0.692-13.422-0.28-20.02-2.899     c6.876-21.748,9.065-45.104,5.796-68.459c7.112-2.742,14.086-3.73,20.723-2.942c2.593,0.312,5.281,1.359,8.234,3.187     c5.031,3.132,10.687,4.741,16.546,4.741c1.359,0,2.734-0.086,4.109-0.258c14.217-1.804,25.655-13.445,27.201-27.67     C481.499,202.378,478.625,193.419,472.625,186.762z M311.778,77.693c-0.891-3.859-0.234-7.835,1.844-11.202     c2.234-3.617,5.921-6.109,10.108-6.851c4.234-0.734,8.468,0.336,11.905,3.039c5.312,4.187,7.124,11.686,4.281,17.819     c-1.485,3.211-3.906,5.718-6.984,7.226c-4.171,2.031-7.546,4.624-10.046,7.71c-4.251,5.277-7.267,11.518-9.011,18.62     c-1.643-0.751-3.3-1.462-4.962-2.154c1.195-3.198,2.241-6.537,3.084-10.029C313.825,94.395,313.746,86.255,311.778,77.693z      M82.232,339.103l-0.968,1.359c-5.742,6.89-15.952,8.125-23.256,2.827c-6.202-4.515-8.664-14.827-5.163-21.639     c3.523-6.859,10.983-10.468,19.115-8.937c0.805,0.172,1.602,0.312,2.383,0.406c10.983,1.295,20.749-1.216,28.276-4.437     c1.342,3.734,2.831,7.405,4.446,11.013C96.661,323.742,88.198,330.311,82.232,339.103z M316.855,382.207     c-5.782-17.447-2.849-28.33-2.686-28.886c1.032-3.39-0.875-6.969-4.25-7.999c-3.359-1.015-6.969,0.875-7.999,4.25     c-0.261,0.862-5.234,18.019,5.433,43.664c0.02,0.055,0.046,0.109,0.067,0.164c2.088,4.996,4.76,10.307,8.186,15.887     c5.359,8.749,13.14,16.327,23.107,22.545c5.187,3.218,8.843,8.28,10.265,14.234c1.516,6.406,0.234,13.171-3.515,18.561     c-3.812,5.468-9.593,8.937-16.281,9.734c-10.499,1.359-20.608-4.969-24.249-14.765c-1.906-5.093-2-10.468-0.281-15.545     c1.953-5.749,2.672-11.233,2.109-16.296c-4.515-41.122-50.738-63.167-52.699-64.089c-3.196-1.485-7-0.109-8.499,3.078     c-1.5,3.203-0.125,7.015,3.07,8.515c0.258,0.115,15.792,7.558,28.673,21.08c-28.632,5.711-58.415,2.493-85.129-9.159     c5.497-6.06,10.843-9.401,10.952-9.468c3.015-1.844,3.976-5.765,2.14-8.781c-1.821-3-5.718-4-8.765-2.172     c-1.211,0.734-29.545,18.202-29.052,49.544c0.016,0.579,0.039,1.172-0.008,1.75c-0.75,8.843-8.249,15.686-17.139,15.686     c-0.093,0-0.188,0-0.281-0.016c-7.663-0.125-15.592-7.155-16.632-14.749c-1.054-7.656,2.953-14.905,10.358-18.217     c0.781-0.344,1.547-0.687,2.328-1.109c23.498-12.718,28.826-39.247,29.045-40.372c0.664-3.468-1.602-6.797-5.07-7.468     c-3.406-0.813-6.812,1.578-7.499,5.046c-0.021,0.097-0.928,4.463-3.534,10.13c-24.308-19.761-41.552-47.108-48.869-77.765     c-3.717-15.595-4.805-31.419-3.257-47.149c14.034,6.426,23.002,16.489,23.147,16.652c1.273,1.445,3.039,2.179,4.82,2.179     c1.492,0,3-0.515,4.211-1.578c2.656-2.328,2.929-6.351,0.617-9.015c-0.801-0.916-14.361-16.184-35.485-22.998     c-0.489-0.222-1.013-0.387-1.567-0.481c-8.99-2.672-19.274-3.776-30.49-1.62c-0.734,0.133-1.476,0.281-2.203,0.352     c-12.437,1.117-23.662-7.694-25.624-20.069c-1.671-10.507,6.039-23.045,16.179-26.303c10.218-3.289,21.093,0.461,27.443,9.858     c0.57,0.844,1.149,1.695,1.789,2.508c20.757,26.201,54.645,27.029,56.074,27.052c4.211-0.039,6.429-2.758,6.492-6.281     c0.062-3.532-2.75-6.445-6.273-6.516c-0.202-0.005-13.728-0.401-27.681-7.388c12.975-29.51,35.22-53.556,63.49-68.637     c5.786,17.455,2.85,28.342,2.687,28.911c-1.032,3.382,0.875,6.953,4.257,7.992c0.625,0.188,1.25,0.274,1.867,0.274     c2.742,0,5.281-1.773,6.125-4.531c0.305-1.015,7.382-25.389-13.679-59.722c-5.391-8.764-13.163-16.343-23.107-22.53     c-5.21-3.234-8.859-8.296-10.273-14.249c-1.523-6.39-0.25-13.147,3.508-18.538c3.804-5.477,9.593-8.945,16.296-9.757     c10.359-1.242,20.6,4.96,24.24,14.772c1.898,5.109,1.992,10.484,0.274,15.554c-1.976,5.835-2.664,11.164-2.102,16.281     c4.5,41.145,50.738,63.183,52.699,64.097c3.187,1.508,7.007,0.117,8.499-3.086c1.5-3.196,0.125-7.007-3.078-8.507     c-0.253-0.119-15.779-7.555-28.657-21.072c25.89-5.184,52.218-3.155,76.607,5.714c0.228,0.096,0.458,0.179,0.692,0.247     c8.825,3.261,17.391,7.417,25.586,12.454c28.596,17.578,49.681,44.021,60.403,75.385c0.08,0.313,0.178,0.616,0.3,0.905     c1.358,4.058,2.552,8.194,3.557,12.407C403.605,285.997,373.603,351.884,316.855,382.207z M419.582,318.339     c0.656-0.062,1.297-0.093,1.953-0.125c10.203,0,18.733,7.984,19.451,18.233c0.625,8.718-6.578,18.436-15.108,20.373     c-8.578,1.906-17.218-1.875-21.733-9.999c-0.438-0.796-0.891-1.609-1.406-2.374c-4.038-6.138-9.295-11.422-15.636-15.804     c2.373-4.513,4.53-9.139,6.456-13.862C401.974,318.053,410.618,319.248,419.582,318.339z M467.797,209.972     c-0.922,8.406-7.687,15.288-16.077,16.35c-4.406,0.578-8.64-0.36-12.296-2.648c-4.593-2.843-9-4.484-13.468-5.024     c-8.092-0.996-16.313-0.02-24.598,2.857c-0.128-0.564-0.25-1.129-0.385-1.692c-0.538-2.258-1.131-4.495-1.764-6.714     c4.393-0.817,8.86-1.978,13.357-3.472c8.437-2.805,16.343-7.859,23.514-15.006c3.499-3.499,8.14-5.437,13.093-5.46     c0.031,0,0.062,0,0.093,0c5.265,0,10.311,2.25,13.843,6.171C466.719,199.34,468.391,204.535,467.797,209.972z"/><path d="M270.156,201.246c0-15.609-12.702-28.31-28.31-28.31s-28.31,12.702-28.31,28.31c0,15.609,12.702,28.31,28.31,28.31     S270.156,216.854,270.156,201.246z M241.846,216.76c-8.554,0-15.514-6.96-15.514-15.514s6.96-15.514,15.514-15.514     s15.514,6.96,15.514,15.514S250.4,216.76,241.846,216.76z"/><path d="M273.265,281.122c-12.89,0-23.374,10.484-23.374,23.374c0,12.89,10.484,23.374,23.374,23.374     s23.374-10.484,23.374-23.374C296.639,291.606,286.154,281.122,273.265,281.122z M273.265,315.057     c-5.828,0-10.577-4.734-10.577-10.561s4.75-10.561,10.577-10.561c5.828,0,10.561,4.734,10.561,10.561     S279.093,315.057,273.265,315.057z"/><path d="M177.898,265.585c-10.327,0-18.725,8.397-18.725,18.725c0,10.327,8.397,18.733,18.725,18.733     c10.328,0,18.733-8.406,18.733-18.733C196.63,273.983,188.225,265.585,177.898,265.585z M177.898,290.231     c-3.265,0-5.93-2.656-5.93-5.921c0-3.265,2.664-5.921,5.93-5.921c3.273,0,5.937,2.656,5.937,5.921     C183.835,287.575,181.17,290.231,177.898,290.231z"/><path d="M326.245,186.997c-19.936,0-36.169,16.217-36.169,36.161s16.233,36.161,36.169,36.161     c19.936,0,36.169-16.217,36.169-36.161S346.182,186.997,326.245,186.997z M326.245,246.524c-12.89,0-23.358-10.484-23.358-23.365     c0-12.882,10.468-23.365,23.358-23.365c12.89,0,23.358,10.484,23.358,23.365C349.603,236.04,339.135,246.524,326.245,246.524z"/></g></g><ellipse cx="326.245" cy="223.159" rx="23.365" ry="23.358" style="fill:#A3D85D;" transform="matrix(0.0016 -1 1 0.0016 102.553 549.0383)"/><circle cx="241.846" cy="201.246" r="15.514" style="fill:#A3D85D;"/><path d="M177.898,290.231c-3.265,0-5.93-2.656-5.93-5.921c0-3.265,2.664-5.921,5.93-5.921   c3.273,0,5.937,2.656,5.937,5.921C183.835,287.575,181.17,290.231,177.898,290.231z" style="fill:#A3D85D;"/><path d="M273.265,315.057c-5.828,0-10.577-4.734-10.577-10.561s4.75-10.561,10.577-10.561   c5.828,0,10.561,4.734,10.561,10.561S279.093,315.057,273.265,315.057z" style="fill:#A3D85D;"/></g></svg>