<svg xmlns="http://www.w3.org/2000/svg" width="231" height="230" fill="none" viewBox="0 0 231 230">
    <path fill="#DFF1FF" fill-rule="evenodd" d="M116.045.626c21.014-2.767 42.309 3.864 60.555 15.551 18.698 11.977 33.907 29.676 43.301 50.973 9.507 21.554 13.316 45.858 9.823 69.466-3.46 23.378-13.997 45.012-29.259 61.876-14.695 16.238-33.963 27.219-54.632 30.823-19.304 3.366-37.473-6.516-56.49-11.448-20.226-5.245-42.95-3.671-58.722-18.428-16.565-15.5-24.47-39.392-28.135-62.842-3.726-23.846-4.653-50.25 7.273-70.656 11.55-19.763 35.727-23.456 54.46-34.968C81.654 20.26 96.17 3.243 116.045.626z" clip-rule="evenodd"/>
</svg>
