<svg width="77" height="76" viewBox="0 0 77 76" fill="none" xmlns="http://www.w3.org/2000/svg">
<path fill-rule="evenodd" clip-rule="evenodd" d="M38.6815 0.206694C45.6863 -0.707536 52.7846 1.48355 58.8666 5.3455C65.0993 9.30309 70.169 15.1515 73.3002 22.1887C76.4693 29.3109 77.7391 37.3417 76.5746 45.1426C75.4214 52.8676 71.9089 60.0161 66.8217 65.5886C61.9234 70.9542 55.5007 74.5829 48.6109 75.7738C42.1764 76.8859 36.12 73.6205 29.7808 71.9909C23.0389 70.2578 15.464 70.7776 10.207 65.9014C4.6852 60.7797 2.05033 52.885 0.828794 45.1363C-0.4134 37.2567 -0.722466 28.5319 3.25286 21.7893C7.10306 15.259 15.1621 14.0385 21.4063 10.2346C27.2181 6.69419 32.0568 1.07132 38.6815 0.206694Z" fill="#DFF1FF"/>
<path d="M46.6692 14H29.4232C26.4912 14 24 16.3415 24 19.2124V58.7935C24 61.6644 26.4385 64 29.3705 64L46.6449 63.9817C49.5765 63.9817 51.9749 61.6458 51.9749 58.7745L52 19.2096C51.9996 16.3284 49.613 14 46.6692 14ZM35.5548 17.1251H40.5583C40.9979 17.1251 41.3559 17.4746 41.3559 17.9062C41.3559 18.3379 40.9979 18.6874 40.5583 18.6874H35.5548C35.114 18.6874 34.7572 18.3379 34.7572 17.9062C34.7572 17.4746 35.114 17.1251 35.5548 17.1251ZM32.5482 17.3737C32.8438 17.0846 33.3819 17.0806 33.677 17.3737C33.825 17.5182 33.9126 17.7212 33.9126 17.9285C33.9126 18.1318 33.825 18.3344 33.677 18.4793C33.5299 18.6243 33.3218 18.7097 33.1146 18.7097C32.9034 18.7097 32.7003 18.6243 32.5482 18.4793C32.401 18.3348 32.3171 18.1318 32.3171 17.9285C32.3167 17.7212 32.401 17.5182 32.5482 17.3737ZM37.8956 62.4516C36.5794 62.4516 35.509 61.4023 35.509 60.1136C35.509 58.8245 36.5794 57.7757 37.8956 57.7757C39.2118 57.7757 40.2822 58.8245 40.2822 60.1136C40.2822 61.4023 39.2114 62.4516 37.8956 62.4516ZM49.5242 56.1867H26.7917V21.4221H49.5242V56.1867Z" fill="#2F80ED"/>
</svg>
