<svg width="77" height="76" viewBox="0 0 77 76" fill="none" xmlns="http://www.w3.org/2000/svg">
<path fill-rule="evenodd" clip-rule="evenodd" d="M38.6815 0.206694C45.6863 -0.707536 52.7846 1.48355 58.8666 5.3455C65.0993 9.30309 70.169 15.1515 73.3002 22.1887C76.4693 29.3109 77.7391 37.3417 76.5746 45.1426C75.4214 52.8676 71.9089 60.0161 66.8217 65.5886C61.9234 70.9542 55.5007 74.5829 48.6109 75.7738C42.1764 76.8859 36.12 73.6205 29.7808 71.9909C23.0389 70.2578 15.464 70.7776 10.207 65.9014C4.6852 60.7797 2.05033 52.885 0.828794 45.1363C-0.4134 37.2567 -0.722466 28.5319 3.25286 21.7893C7.10306 15.259 15.1621 14.0385 21.4063 10.2346C27.2181 6.69419 32.0568 1.07132 38.6815 0.206694Z" fill="#DFF1FF"/>
<path d="M55.2734 23.6531H20.7266C18.1203 23.6531 16 25.7734 16 28.3796V51.0671C16 53.6734 18.1203 55.7937 20.7266 55.7937H31.8567C31.9925 55.7937 32.1217 55.8589 32.2024 55.9683L36.2632 61.4737C36.6701 62.0255 37.2967 62.3438 37.9823 62.347H37.9926C38.6743 62.347 39.2996 62.0348 39.7096 61.4896L43.8625 55.9651C43.9432 55.8577 44.0717 55.7936 44.206 55.7936H55.2734C57.8797 55.7936 60 53.6733 60 51.0671V28.3796C60 25.7733 57.8797 23.6531 55.2734 23.6531ZM57.4219 51.0671C57.4219 51.2701 57.393 51.4663 57.3401 51.6525L44.0968 40.0434L57.4219 28.9852V51.0671ZM55.2734 26.2312C55.6664 26.2312 56.0348 26.3378 56.352 26.5228L39.3757 40.611C38.5806 41.2709 37.4267 41.2709 36.6316 40.611L19.6523 26.5203C19.9685 26.3368 20.3354 26.2312 20.7266 26.2312H55.2734ZM18.6599 51.6525C18.607 51.4663 18.5781 51.27 18.5781 51.0671V28.9791L31.9069 40.0402L18.6599 51.6525ZM41.8018 54.416L37.9955 59.4791L34.2772 54.438C33.7127 53.6725 32.8077 53.2155 31.8566 53.2155H20.7878L33.9158 41.7075L34.9851 42.5949C35.8597 43.3207 36.9315 43.6835 38.0036 43.6835C39.0754 43.6835 40.1476 43.3205 41.022 42.5949L42.0875 41.7106L55.212 53.2155H44.206C43.2657 53.2156 42.3669 53.6643 41.8018 54.416Z" fill="#2F80ED"/>
</svg>
