<svg width="23" height="30" viewBox="0 0 23 30" fill="none" xmlns="http://www.w3.org/2000/svg">
<path d="M1.12502 11.25H3.00002V8.74998C3.00002 3.92519 6.92516 0 11.75 0C16.5748 0 20.5 3.92519 20.5 8.74998V11.25H22.375C22.7204 11.25 23 11.5296 23 11.875V27.5C23 28.8788 21.8788 30 20.5 30H2.99996C1.62119 30 0.5 28.8788 0.5 27.5V11.875C0.5 11.5296 0.779551 11.25 1.12502 11.25ZM9.87863 24.306C9.85912 24.4824 9.91584 24.6594 10.0343 24.7919C10.1527 24.9243 10.3224 25 10.5 25H13C13.1776 25 13.3473 24.9243 13.4657 24.7919C13.5841 24.6595 13.6409 24.4825 13.6213 24.306L13.227 20.7605C13.8673 20.2948 14.25 19.5581 14.25 18.75C14.25 17.3712 13.1288 16.25 11.7499 16.25C10.3711 16.25 9.24992 17.3712 9.24992 18.75C9.24992 19.5581 9.6326 20.2948 10.2729 20.7605L9.87863 24.306ZM6.75002 11.25H16.75V8.74998C16.75 5.99303 14.507 3.75 11.75 3.75C8.99305 3.75 6.75002 5.99303 6.75002 8.74998V11.25Z" fill="#2F80ED"/>
</svg>
